<svg xmlns="http://www.w3.org/2000/svg" xmlns:xlink="http://www.w3.org/1999/xlink" version="1.1" x="0px" y="0px" viewBox="0 0 64 80" style="enable-background:new 0 0 64 64;" xml:space="preserve"><g><path d="M63,27v-5c0-2.757-2.243-5-5-5h-3h-1h-5v-2h4v-4c2.206,0,4-1.794,4-4s-1.794-4-4-4V1H43h-1H1v54c0,4.411,3.589,8,8,8h25h1   h24v-6h-4v-9h8v-9h-2V27H63z M58,19c1.654,0,3,1.346,3,3v3h-6v-6H58z M53,37H43v-6h8V21h-8v-2h10V37z M43,25v-2h6v6h-6v-2h4v-2H43z    M47,17h-4v-2h4V17z M55,7c0,1.103-0.897,2-2,2V5C54.103,5,55,5.897,55,7z M51,3v10h-8V8V3H51z M34,61h-1v-2h-2v2h-2v-2h-2v2h-2v-2   h-2v2h-2v-2h-2v2h-2v-2h-2v2h-2v-2h-2v2H9v-2H7v1.65C4.673,59.824,3,57.607,3,55V3h38v52c0,2.607-1.673,4.824-4,5.65V59h-2v2H34z    M57,59v2H40.274c0.69-0.607,1.278-1.326,1.726-2.136V59h11h1H57z M53,57h-6V45h-2v12h-2.263C42.903,56.359,43,55.692,43,55V39h10   v9V57z M61,46h-2v-3h-2v3h-2v-5h6V46z M59,39h-4v-1V27h4V39z"/><path d="M46,11c1.654,0,3-1.346,3-3s-1.346-3-3-3s-3,1.346-3,3S44.346,11,46,11z M46,7c0.551,0,1,0.448,1,1s-0.449,1-1,1   s-1-0.448-1-1S45.449,7,46,7z"/><path d="M39,5H5v22h34V5z M37,25H7V7h30V25z"/><path d="M18,33h-8v5H5v8h5v5h8v-5h5v-8h-5V33z M21,40v4h-5v5h-4v-5H7v-4h5v-5h4v5H21z"/><path d="M33,37c0-2.206-1.794-4-4-4s-4,1.794-4,4s1.794,4,4,4S33,39.206,33,37z M29,39c-1.103,0-2-0.897-2-2s0.897-2,2-2   s2,0.897,2,2S30.103,39,29,39z"/><path d="M39,47c0-2.206-1.794-4-4-4s-4,1.794-4,4s1.794,4,4,4S39,49.206,39,47z M33,47c0-1.103,0.897-2,2-2s2,0.897,2,2   s-0.897,2-2,2S33,48.103,33,47z"/><rect x="9" y="11" width="26" height="2"/><rect x="9" y="19" width="22" height="2"/><rect x="33" y="19" width="2" height="2"/></g></svg>