<svg xmlns="http://www.w3.org/2000/svg" xmlns:xlink="http://www.w3.org/1999/xlink" version="1.1" x="0px" y="0px" viewBox="0 0 100 125" style="enable-background:new 0 0 100 100;" xml:space="preserve"><g><path d="M82.1,32.9v34.2h-9.2l2.8,2.7h7.8c0.7,0,1.3-0.6,1.3-1.3V31.6c0,0-0.6-1.3-1.4-1.4H34.8l2.7,2.7H82.1z"/><path d="M75.7,64.8c0-1,0.4-2,1.1-2.8c0.7-0.7,1.7-1.1,2.8-1.1c0.7,0,1.3-0.6,1.3-1.3V40.3c0,0-0.6-1.3-1.3-1.3   c-2.1,0-3.8-1.7-3.8-3.8c0-0.7-0.6-1.3-1.3-1.4h-36l2.7,2.7h32.1c0.5,2.4,4.8,4.9,4.8,4.9v16.9c-1.2,0.3-2.4,0.9-3.3,1.8   c-0.9,0.9-1.5,2-1.8,3.3H69l2.8,2.7h2.7C75.2,66.1,75.7,65.5,75.7,64.8z"/><path d="M50,37.6c-2.2,0-4.2,0.6-6,1.6l2,1.9c1.2-0.6,2.6-0.9,4-0.9c5.4,0,9.8,4.4,9.8,9.8c0,1.3-0.2,2.5-0.7,3.7l2,1.9   c0.8-1.7,1.3-3.6,1.3-5.6C62.4,43.1,56.9,37.6,50,37.6z"/><path d="M83.4,16.6C74.5,7.7,62.6,2.7,50,2.7c-6.6,0-13,1.3-19,4c-5.8,2.5-10.9,6.2-15.3,10.7c-0.1,0-0.1,0.1-0.2,0.1   c-0.1,0.1-0.1,0.1-0.1,0.2l0,0C7.2,26.6,2.7,38,2.7,50c0,12.6,4.9,24.5,13.8,33.4c8.9,8.9,20.8,13.8,33.4,13.8s24.5-4.9,33.4-13.8   c0.1-0.1,0.1-0.1,0.2-0.2c0.1,0,0.1-0.1,0.2-0.1c0,0,0.1-0.1,0.1-0.1c0,0,0,0,0,0c8.7-8.9,13.4-20.6,13.4-33   C97.3,37.4,92.3,25.5,83.4,16.6z M50,5.4c24.6,0,44.6,20,44.6,44.6c0,10.7-3.8,20.5-10,28.2c-0.2,0.2-0.4,0.5-0.6,0.7   c-0.4,0.5-0.9,1-1.3,1.5l-11-10.6l-2.7-2.6l-1.1-1l-2.7-2.6L59.5,58l-1.9-1.8L43.5,42.6l-1.9-1.8l-4.5-4.3l-2.7-2.6l-1.1-1   l-2.7-2.6L18.4,18.5c0.5-0.5,0.9-0.9,1.4-1.4c0.2-0.2,0.5-0.4,0.7-0.6C28.6,9.3,39,5.4,50,5.4z M61,67.1H17.9V32.9h7.6h1.4h2.9   l1.1,1H28h-1.4h-1.1c-0.7,0-1.3,0.6-1.3,1.2c0,0.9-0.4,1.8-1.1,2.5c-0.7,0.7-1.7,1-2.7,1c-0.7,0-1.3,0.6-1.3,1.3v19.9   c0,0,0.6,1.3,1.3,1.3c1,0,1.9,0.4,2.7,1.1c0.7,0.7,1.1,1.7,1.1,2.7c0,0.7,0.6,1.3,1.3,1.4h34.5h1.3h2.8l1.1,1h-2.8H61z M55.7,58   c-0.6,0.4-1.2,0.7-1.8,1c-0.3,0.1-0.6,0.3-1,0.4C52,59.7,51,59.8,50,59.8c-5.4,0-9.8-4.4-9.8-9.8c0-0.9,0.1-1.8,0.3-2.6   c0.1-0.3,0.2-0.7,0.3-1c0.2-0.6,0.6-1.3,0.9-1.8L55.7,58z M38.7,44.5c-0.1,0.3-0.3,0.6-0.4,0.9c-0.7,1.7-1,3.5-0.8,5.4   C37.9,57,42.8,62,49,62.4c2.1,0.1,4.1-0.2,5.9-1c0.3-0.1,0.6-0.3,0.9-0.4c0.6-0.3,1.2-0.7,1.7-1.1l3.8,3.6h-2.8h-1.3H26.5   c-0.2-1.2-0.8-2.3-1.7-3.2c-0.9-0.9-2-1.5-3.2-1.7V41.5c1.2-0.2,2.3-0.8,3.2-1.7c0.9-0.9,1.5-2,1.7-3.2h2.6h1.3h2.8l6.5,6.3   C39.4,43.3,39,43.9,38.7,44.5z M49.9,94.5c-24.6,0-44.6-20-44.6-44.6c0-10,3.3-19.5,9.3-27.3c0.2-0.2,0.4-0.5,0.6-0.7   c0.4-0.5,0.8-1,1.3-1.5l10.2,9.8h-2.8h-1.3h-6c-0.7,0-1.3,0.6-1.3,1.3v36.8c0,0.7,0.6,1.3,1.3,1.3h47h1.3h2.8l13,12.5   c-0.5,0.5-1,0.9-1.4,1.3c-0.2,0.2-0.5,0.4-0.7,0.6C70.8,90.5,60.8,94.5,49.9,94.5z"/></g></svg>