<svg xmlns="http://www.w3.org/2000/svg" xmlns:xlink="http://www.w3.org/1999/xlink" version="1.1" x="0px" y="0px" viewBox="0 0 128 160" style="enable-background:new 0 0 128 128;" xml:space="preserve"><g><g><g><path d="M85.512,36.729H43.628c-1.104,0-2-0.896-2-2V12.473c0-2.466,2.006-4.473,4.473-4.473h36.938     c2.466,0,4.473,2.007,4.473,4.473v22.257C87.512,35.834,86.616,36.729,85.512,36.729z M45.628,32.729h37.883V12.473     c0-0.261-0.212-0.473-0.473-0.473H46.101c-0.261,0-0.473,0.212-0.473,0.473V32.729z"/><path d="M88.384,47.448h-47.72c-0.625,0-1.213-0.292-1.592-0.789c-0.378-0.497-0.502-1.143-0.336-1.744l2.965-10.719     c0.24-0.866,1.028-1.467,1.928-1.467h41.883c0.905,0,1.697,0.608,1.932,1.482l2.872,10.719c0.161,0.601,0.033,1.242-0.345,1.735     C89.592,47.159,89.006,47.448,88.384,47.448z M43.292,43.448h42.485l-1.8-6.719H45.15L43.292,43.448z"/><g><path d="M58.472,18.817l-4.135,1.755c-0.642,0.273-1.059,0.901-1.059,1.597v0c0,0.696,0.417,1.324,1.059,1.597      l4.135,1.756c0.764,0.324,1.643-0.071,1.904-0.858v0c0.235-0.709-0.123-1.477-0.817-1.756l-1.837-0.738l1.838-0.739      c0.694-0.279,1.052-1.048,0.817-1.756v0C60.116,18.889,59.236,18.493,58.472,18.817z"/><path d="M62.925,28.442h0.018c0.584,0,1.105-0.37,1.295-0.921l3.08-8.916c0.306-0.886-0.354-1.81-1.295-1.81      l0,0c-0.584,0-1.103,0.369-1.294,0.918l-3.098,8.916C61.323,27.517,61.983,28.442,62.925,28.442z"/><path d="M68.672,19.676L68.672,19.676c-0.235,0.708,0.122,1.476,0.815,1.755l1.838,0.739l-1.836,0.738      c-0.695,0.279-1.052,1.048-0.817,1.757v0c0.261,0.785,1.14,1.181,1.903,0.857l4.135-1.756c0.642-0.273,1.059-0.901,1.059-1.596      v0c0-0.696-0.417-1.325-1.06-1.597l-4.137-1.753C69.81,18.497,68.933,18.892,68.672,19.676z"/></g></g><g><path d="M48.848,108.268H6.965c-1.104,0-2-0.896-2-2V84.011c0-2.466,2.006-4.473,4.472-4.473h36.938     c2.466,0,4.472,2.007,4.472,4.473v22.257C50.848,107.372,49.953,108.268,48.848,108.268z M8.965,104.268h37.883V84.011     c0-0.261-0.212-0.473-0.472-0.473H9.438c-0.26,0-0.472,0.212-0.472,0.473V104.268z"/><path d="M51.721,120H4c-0.617,0-1.199-0.284-1.578-0.771c-0.379-0.486-0.512-1.121-0.361-1.719l2.965-11.732     c0.224-0.888,1.023-1.51,1.939-1.51h41.883c0.921,0,1.724,0.63,1.942,1.524l2.873,11.732c0.146,0.597,0.01,1.228-0.369,1.71     C52.915,119.718,52.335,120,51.721,120z M6.568,116h42.604l-1.893-7.732H8.523L6.568,116z"/></g><g><path d="M121.128,108.268H79.244c-1.104,0-2-0.896-2-2V84.011c0-2.466,2.007-4.473,4.473-4.473h36.938     c2.466,0,4.473,2.007,4.473,4.473v22.257C123.128,107.372,122.232,108.268,121.128,108.268z M81.244,104.268h37.884V84.011     c0-0.261-0.212-0.473-0.473-0.473H81.717c-0.261,0-0.473,0.212-0.473,0.473V104.268z"/><path d="M124,120H76.279c-0.617,0-1.199-0.284-1.578-0.771c-0.379-0.486-0.512-1.12-0.361-1.719l2.965-11.732     c0.225-0.888,1.023-1.51,1.939-1.51h41.884c0.922,0,1.724,0.63,1.942,1.524l2.872,11.732c0.146,0.597,0.01,1.228-0.369,1.71     C125.194,119.718,124.614,120,124,120z M78.848,116h42.604l-1.893-7.732H80.802L78.848,116z"/></g><g><path d="M100.838,70.191c-1.104,0-2-0.896-2-2v-4.923H73.366c-1.104,0-2-0.896-2-2s0.896-2,2-2h27.472c1.104,0,2,0.896,2,2v6.923     C102.838,69.296,101.942,70.191,100.838,70.191z"/><path d="M28.209,67.255c-1.104,0-2-0.896-2-2v-3.986c0-1.104,0.896-2,2-2h27.472c1.104,0,2,0.896,2,2s-0.896,2-2,2H30.209v1.986     C30.209,66.359,29.314,67.255,28.209,67.255z"/><path d="M70.873,67.323H58.175c-2.478,0-4.494-2.016-4.494-4.494v-3.122c0-2.479,2.016-4.494,4.494-4.494h12.698     c2.478,0,4.493,2.016,4.493,4.494v3.122C75.366,65.308,73.351,67.323,70.873,67.323z M58.175,59.213     c-0.272,0-0.494,0.222-0.494,0.494v3.122c0,0.272,0.222,0.494,0.494,0.494h12.698c0.271,0,0.493-0.222,0.493-0.494v-3.122     c0-0.272-0.222-0.494-0.493-0.494H58.175z"/><g><path d="M64.524,59.213c-1.104,0-2-0.896-2-2V45.448c0-1.104,0.896-2,2-2c1.105,0,2,0.896,2,2v11.765      C66.523,58.317,65.629,59.213,64.524,59.213z"/></g><path d="M28.209,76.184c-3.028,0-5.492-2.478-5.492-5.522s2.463-5.522,5.492-5.522s5.492,2.478,5.492,5.522     S31.238,76.184,28.209,76.184z M28.209,69.139c-0.823,0-1.492,0.683-1.492,1.522s0.669,1.522,1.492,1.522     s1.492-0.683,1.492-1.522S29.032,69.139,28.209,69.139z"/><path d="M100.838,77.236c-3.028,0-5.491-2.478-5.491-5.522s2.463-5.522,5.491-5.522s5.492,2.478,5.492,5.522     S103.866,77.236,100.838,77.236z M100.838,70.191c-0.822,0-1.491,0.683-1.491,1.522s0.669,1.522,1.491,1.522     c0.823,0,1.492-0.683,1.492-1.522S101.661,70.191,100.838,70.191z"/></g></g></g></svg>